<svg xmlns="http://www.w3.org/2000/svg" width="237.88" height="108.75" viewBox="0 0 237.88 108.75"><path d="M72.41,198q.53-5.14.75-8.54.42-6,.88-16.43c.23-4.85.34-8.26.34-10.25v-2.36l6.32,0,6,0L85.34,181l-.66,17-6,0C77.87,198,75.77,198,72.41,198Zm13.8-19.84,6.16-8.39,5-7,1.54-2.36,6.94,0,6.58,0L100.8,175.12l-2.18,2.94,2,3.26L112.17,198l-6.77,0c-1.47,0-4,0-7.46,0Q94.39,191.35,86.21,178.2Z" transform="translate(-72.41 -128.44)"/><path d="M120.07,198q.69-7.11,1-11.89t.63-12.74c.21-5.29.32-8.81.32-10.53l0-2.42q6.5,0,15.72,0,8.5,0,15,0l-.05.9c0,.22-.07,1-.14,2.39l-.16,3q-.06,1-.06,1.95c-3.54-.15-6.52-.22-8.92-.22H138c-.92,0-2.37.05-4.33.13l-.34,6.33c2.17.05,4.69.08,7.58.08q1.55,0,8.2-.19-.27,3.53-.52,8.4-4.76-.06-7.32-.06c-2.53,0-5.36.07-8.5.19l-.33,6.7h3.17c.93,0,2.87,0,5.8-.09l5.7-.13c.84,0,2.25-.1,4.23-.22q-.33,4.06-.55,8.42-6.72-.06-14.73,0L124,198Z" transform="translate(-72.41 -128.44)"/><path d="M161.72,198q.53-4.84.83-8.73t.53-9q.21-5.13.33-10.81t.11-9c2.29,0,4.15.08,5.56.08s3.26,0,5.37-.12,4.16-.13,6.16-.13a61.66,61.66,0,0,1,6.28.28,15.63,15.63,0,0,1,3.76.79,10.88,10.88,0,0,1,2.85,1.48,9.09,9.09,0,0,1,1.93,1.94,8.28,8.28,0,0,1,1.19,2.52,10.66,10.66,0,0,1,.43,3.1,12.35,12.35,0,0,1-.47,3.45,9.9,9.9,0,0,1-4,5.48,22.49,22.49,0,0,1-4.29,2.11l1.44,3.49c.4,1,.83,2,1.29,3l3.69,8.07c.16.34.46,1,.88,2.06-3,0-5.06,0-6.11,0-1.32,0-3.48,0-6.49,0-.3-.95-.83-2.73-1.6-5.31-.31-1.09-.58-1.92-.8-2.51q-.66-2-2-5.48L175.79,177a16.36,16.36,0,0,0,2.92.27,10.55,10.55,0,0,0,3.65-.6,4.92,4.92,0,0,0,2.48-1.87,4.78,4.78,0,0,0,.84-2.67A3.45,3.45,0,0,0,185,170a3.75,3.75,0,0,0-2-1.34,14.87,14.87,0,0,0-4.2-.44c-.64,0-1.31,0-2,0s-1.49.05-2.41.07q-.34,5.64-.62,13.77T173.47,198c-3.07,0-5.07,0-6,0S164.5,198,161.72,198Z" transform="translate(-72.41 -128.44)"/><path d="M224,198l2.29-4,14.24-26.82,1.52-3c.44-.88,1.05-2.15,1.84-3.8q4.85,0,7.08,0,3.89,0,7.18,0l4,11.48L270.33,194l1.6,4c-3.18,0-5.11,0-5.79,0-1.54,0-3.81,0-6.81,0q-1.2-4.54-3.49-10.68H242Q239.59,192.21,237,198c-3.42,0-5.51,0-6.28,0C229.35,198,227.1,198,224,198Zm21.32-18.7h8.55q-3.18-9.69-3.49-10.69c-1.21,2.7-2.24,4.9-3.08,6.63Z" transform="translate(-72.41 -128.44)"/><path d="M279.06,198q.69-6.49,1-10.6.58-7.49.87-14.88t.29-12.1q3.75,0,6.63,0c1.31,0,3.18,0,5.62,0l-.67,10L292,186l-.11,3.83q4.74.07,6.17.08c4.83,0,8.49-.07,11-.19l-.61,8.31q-7.25-.06-13.79,0Q285.73,198,279.06,198Z" transform="translate(-72.41 -128.44)"/><path d="M227.94,236.79c.26-2.41.44-4.37.56-5.89q.31-4.16.48-8.26c.11-2.74.16-5,.16-6.72l3.68,0,3.12,0-.37,5.54-.46,8.65-.06,2.12,3.42.05q4,0,6.09-.11l-.34,4.62-7.66,0Q231.64,236.76,227.94,236.79Z" transform="translate(-72.41 -128.44)"/><path d="M245.58,236.79l1.27-2.21,7.9-14.88.85-1.67,1-2.11,3.93,0c1.44,0,2.76,0,4,0l2.23,6.38,4.53,12.25.89,2.24-3.21,0-3.78,0q-.68-2.52-1.94-5.93h-7.69q-1.33,2.69-2.75,5.93l-3.49,0Zm11.83-10.38h4.75q-1.77-5.39-1.94-5.94c-.67,1.5-1.24,2.72-1.71,3.68Z" transform="translate(-72.41 -128.44)"/><path d="M273.86,236.79c.21-2.25.35-4,.42-5.29.11-1.75.2-4.16.3-7.22s.15-5.21.15-6.46c0-.45,0-1.08,0-1.9,1.36,0,2.43.05,3.23.05,1.11,0,2.4,0,3.88-.07s2.75-.07,3.8-.07a24,24,0,0,1,2.73.11,6.64,6.64,0,0,1,1.87.49,4.43,4.43,0,0,1,1.34.87,4.61,4.61,0,0,1,.93,1.47,5.79,5.79,0,0,1,.38,2.09,6.12,6.12,0,0,1-.22,1.67,5,5,0,0,1-.63,1.41,4.36,4.36,0,0,1-.91,1,4.43,4.43,0,0,1-1,.64,7.28,7.28,0,0,1-1.3.46,8.07,8.07,0,0,1,1.3.31,4.58,4.58,0,0,1,1.05.57,4.13,4.13,0,0,1,1,1,4.48,4.48,0,0,1,.67,1.37,5.57,5.57,0,0,1,.22,1.6,6.28,6.28,0,0,1-.38,2.18,5.19,5.19,0,0,1-1.07,1.76,4.91,4.91,0,0,1-1.52,1.07,7,7,0,0,1-1.91.61c-.53.08-1.49.14-2.89.19s-2.89.06-4.46.06l-4,0Zm6.46-4.19h2.93a7.85,7.85,0,0,0,1.72-.14,2.71,2.71,0,0,0,1-.44,2,2,0,0,0,.56-.75,2.61,2.61,0,0,0,.21-1.06,2.19,2.19,0,0,0-.17-.88,1.52,1.52,0,0,0-.51-.64,2.07,2.07,0,0,0-.82-.38,7.23,7.23,0,0,0-1.53-.11H280.5Zm.35-8.55h2.17a13.85,13.85,0,0,0,1.52-.05,5.1,5.1,0,0,0,.88-.19,1.69,1.69,0,0,0,.74-.46,1.82,1.82,0,0,0,.45-.72,2.72,2.72,0,0,0,.13-.79,1.88,1.88,0,0,0-.27-1,1.58,1.58,0,0,0-.86-.66,5.9,5.9,0,0,0-1.82-.21h-2.75Z" transform="translate(-72.41 -128.44)"/><path d="M295.82,236.47c-.13-2.18-.28-3.91-.46-5.22a16.36,16.36,0,0,0,3.06,1.07,11.45,11.45,0,0,0,2.35.29,4.83,4.83,0,0,0,2.12-.39,1.24,1.24,0,0,0,.79-1.15,1.69,1.69,0,0,0-.08-.5,2.2,2.2,0,0,0-.29-.53,3.94,3.94,0,0,0-.61-.65l-2.88-2.51c-.68-.57-1.15-1-1.41-1.24a9.72,9.72,0,0,1-1.27-1.45,4.75,4.75,0,0,1-.65-1.37,5,5,0,0,1-.21-1.47,5.28,5.28,0,0,1,.33-1.83,5.81,5.81,0,0,1,1-1.67,5.7,5.7,0,0,1,1.75-1.35,7.92,7.92,0,0,1,2.32-.77,15.22,15.22,0,0,1,2.55-.2,29.23,29.23,0,0,1,5.63.59c0,.7.06,1.35.1,1.93s.14,1.62.29,3.08a14.55,14.55,0,0,0-2.56-.78,10.83,10.83,0,0,0-2-.22,4,4,0,0,0-2,.44,1.28,1.28,0,0,0-.78,1.1,1.61,1.61,0,0,0,.12.6,2.61,2.61,0,0,0,.46.68,7.44,7.44,0,0,0,.89.85c.36.31.94.77,1.72,1.39l1.1.87a12.27,12.27,0,0,1,1.06,1,13.47,13.47,0,0,1,1,1.11,7.26,7.26,0,0,1,.63,1,4.32,4.32,0,0,1,.33.93,4.52,4.52,0,0,1,.1,1,5.5,5.5,0,0,1-.65,2.62,5.56,5.56,0,0,1-1.87,2.05,7.79,7.79,0,0,1-2.65,1.12,13.65,13.65,0,0,1-3.05.32A35.4,35.4,0,0,1,295.82,236.47Z" transform="translate(-72.41 -128.44)"/><polygon points="135.11 26.51 131.47 54.35 140.08 53.02 131.47 75.89 154.98 44.08 143.22 45.07 150.36 26.51 135.11 26.51" fill="#431b6d"/><rect x="135.78" width="14.25" height="9.78"/></svg>